<svg width="32" height="32" viewBox="0 0 32 32" fill="none" xmlns="http://www.w3.org/2000/svg">
<path d="M14.0469 21.3555L14.4434 20.3711H17.8066L18.2031 21.3555H14.0469ZM13.2812 23.3242L13.6641 22.3398H18.5723L18.9961 23.3242H13.2812ZM12.5156 25.293L12.8984 24.3086H19.3516L19.7617 25.293H12.5156ZM4.51758 28H3.45117L12.4062 5.35938H13.4727L22.4141 28H21.3613L12.9395 6.68555L4.51758 28ZM13.0625 9.02344L13.623 10.2812L6.62305 28H5.57031L13.0625 9.02344ZM14.1562 11.6211L14.6758 12.9746L8.75586 28H7.68945L14.1562 11.6211ZM15.1953 14.3281L15.7148 15.709L10.8613 28H9.80859L15.1953 14.3281ZM28.7715 28H27.7051L18.7637 5.35938H19.8164L28.7715 28ZM17.6973 5.35938L26.6523 28H25.5996L16.6445 5.35938H17.6973ZM15.5781 5.35938L24.5332 28H23.4668L14.5254 5.35938H15.5781Z" fill="white"/>
</svg>
