<svg width="80" height="80" viewBox="0 0 80 80" fill="none" xmlns="http://www.w3.org/2000/svg">
<path d="M40.3906 55.7227C40.3906 56.1523 40.7227 56.5039 41.123 56.5039H59.1895C59.5898 56.5039 59.9219 56.1523 59.9219 55.7227V51.0352C59.9219 50.6055 59.5898 50.2539 59.1895 50.2539H41.123C40.7227 50.2539 40.3906 50.6055 40.3906 51.0352V55.7227ZM21.3574 56.3184L40.1074 40.5957C40.4785 40.2832 40.4785 39.707 40.1074 39.3945L21.3574 23.6816C21.2442 23.5854 21.1058 23.5236 20.9586 23.5037C20.8113 23.4838 20.6614 23.5065 20.5268 23.5693C20.3921 23.632 20.2782 23.732 20.1987 23.8576C20.1191 23.9831 20.0773 24.1288 20.0781 24.2773V30.4004C20.0781 30.6348 20.1758 30.8496 20.3613 30.9961L31.084 40L20.3613 49.0039C20.274 49.077 20.2035 49.168 20.1547 49.2708C20.1058 49.3736 20.0797 49.4858 20.0781 49.5996V55.7227C20.0781 56.3867 20.8496 56.748 21.3574 56.3184ZM75.9375 0.9375H4.0625C2.33398 0.9375 0.9375 2.33398 0.9375 4.0625V75.9375C0.9375 77.666 2.33398 79.0625 4.0625 79.0625H75.9375C77.666 79.0625 79.0625 77.666 79.0625 75.9375V4.0625C79.0625 2.33398 77.666 0.9375 75.9375 0.9375ZM72.0312 72.0312H7.96875V7.96875H72.0312V72.0312Z" fill="white"/>
</svg>
