<svg width="80" height="80" viewBox="0 0 80 80" fill="none" xmlns="http://www.w3.org/2000/svg">
<path d="M35 9.99996C31.185 9.99996 27.625 11.065 24.59 12.92C24.2763 11.242 23.7045 9.62281 22.895 8.11996C26.7015 6.01347 30.9918 4.93675 35.3418 4.99623C39.6919 5.05572 43.9511 6.24934 47.6986 8.45913C51.4461 10.6689 54.552 13.8184 56.7094 17.5962C58.8668 21.3741 60.0011 25.6495 60 30H72.505C74.4933 30.0013 76.3996 30.792 77.8051 32.1984C79.2105 33.6048 80 35.5117 80 37.5V67.5C80 69.4891 79.2098 71.3967 77.8033 72.8033C76.3968 74.2098 74.4891 75 72.5 75H42.5C40.5109 75 38.6032 74.2098 37.1967 72.8033C35.7902 71.3967 35 69.4891 35 67.5V55C31.5219 55.0044 28.0815 54.2805 24.9 52.875C24.965 51.175 25 49.39 25 47.5V47.325C27.94 49.025 31.355 50 35 50V37.5C35 35.5108 35.7902 33.6032 37.1967 32.1967C38.6032 30.7901 40.5109 30 42.5 30H55C55 24.6956 52.8929 19.6086 49.1422 15.8578C45.3914 12.1071 40.3043 9.99996 35 9.99996ZM59.5 35C58.5165 39.8028 56.1443 44.2111 52.6777 47.6777C49.2111 51.1442 44.8029 53.5165 40 54.5V67.5C40 68.163 40.2634 68.7989 40.7323 69.2677C41.2011 69.7366 41.837 70 42.5 70H72.5C73.1631 70 73.7989 69.7366 74.2678 69.2677C74.7366 68.7989 75 68.163 75 67.5V37.5C75 36.8369 74.7366 36.201 74.2678 35.7322C73.7989 35.2634 73.1631 35 72.5 35H59.5ZM54.37 35H42.5C41.837 35 41.2011 35.2634 40.7323 35.7322C40.2634 36.201 40 36.8369 40 37.5V49.37C43.4591 48.4738 46.6155 46.6688 49.1422 44.1422C51.6689 41.6155 53.4739 38.459 54.37 35Z" fill="white"/>
<path d="M12.9 0.625044C13.3158 0.987422 13.6002 1.47716 13.7087 2.01796C13.8172 2.55877 13.7438 3.12028 13.5 3.61504C13.4577 3.76133 13.4358 3.91276 13.435 4.06504C13.435 4.38004 13.515 4.98004 14.27 5.73004C14.635 6.09504 14.915 6.35504 15.22 6.64004C15.47 6.87004 15.735 7.11004 16.07 7.44004C16.72 8.06004 17.405 8.79004 18.02 9.70504C19.295 11.62 20 14.015 20 17.5C20 21.765 18.42 25.4 15.955 27.63L16.275 28C17.675 29.72 18.49 31.95 19 34.15C20 38.5 20 43.73 20 47.375V47.5C20 61.435 18.105 69.34 16.02 73.86C14.97 76.135 13.855 77.585 12.89 78.495C12.4977 78.8714 12.0651 79.2034 11.6 79.485C11.3871 79.6132 11.1648 79.7252 10.935 79.82C10.935 79.82 10.37 80 10 80C9.63 80 9.065 79.82 9.065 79.82C8.83274 79.7308 8.60997 79.6186 8.4 79.485C7.93494 79.2034 7.50233 78.8714 7.11 78.495C6.145 77.58 5.03 76.135 3.98 73.86C1.895 69.34 0 61.435 0 47.5V47.375C0 43.725 2.23517e-07 38.5 1 34.15C1.51 31.95 2.325 29.72 3.725 28C3.825 27.875 3.935 27.75 4.045 27.63C1.58 25.4 0 21.765 0 17.5C0 15.87 0.435 13.925 1.035 12.13C1.635 10.33 2.475 8.47004 3.445 6.97004C4.6 5.02004 6.225 3.38504 7.485 2.28504C8.17579 1.67752 8.8967 1.10514 9.645 0.570044L9.795 0.470044L9.84 0.435043L9.855 0.425044L9.865 0.420044C10.3235 0.114427 10.8701 -0.0311612 11.4198 0.00591108C11.9696 0.0429834 12.4917 0.260639 12.905 0.625044H12.9ZM10.015 25C11.93 24.995 15 22.85 15 17.5C15 14.735 14.455 13.38 13.855 12.48C13.4902 11.9544 13.0694 11.4699 12.6 11.035L11.98 10.455C11.575 10.075 11.1 9.63504 10.73 9.27004C10.1831 8.72888 9.7137 8.11474 9.335 7.44504C8.69855 8.11425 8.13845 8.85211 7.665 9.64504C6.965 10.72 6.285 12.195 5.78 13.715C5.26 15.265 5 16.635 5 17.5C5 22.86 8.075 25 10 25H10.01H10.015ZM7.6 31.16C6.895 32.025 6.3 33.405 5.875 35.275C5.01 39.015 5 43.715 5 47.5C5 61.065 6.855 68.16 8.52 71.765C9.07 72.9501 9.585 73.74 10 74.265C10.415 73.74 10.935 72.9501 11.48 71.765C13.145 68.16 15 61.065 15 47.5C15 43.715 14.99 39.015 14.125 35.275C13.695 33.405 13.105 32.025 12.4 31.16C12.1242 30.7864 11.7616 30.4854 11.3434 30.2833C10.9253 30.0812 10.4642 29.984 10 30H9.99C9.52744 29.9852 9.06821 30.083 8.65186 30.2851C8.23551 30.4872 7.87452 30.7875 7.6 31.16Z" fill="white"/>
</svg>
