<svg width="27" height="145" viewBox="0 0 27 145" fill="none" xmlns="http://www.w3.org/2000/svg">
<path d="M9.96484 79.4707C8.67578 79.4707 7.66016 79.0052 6.91797 78.0742C6.17578 77.1497 5.80469 75.8607 5.80469 74.207C5.80469 72.6836 6.09115 71.3359 6.66406 70.1641H9.47656C9.04688 71.1276 8.74414 71.9414 8.56836 72.6055C8.39258 73.276 8.30469 73.888 8.30469 74.4414C8.30469 75.1055 8.43164 75.6133 8.68555 75.9648C8.93945 76.3229 9.31706 76.502 9.81836 76.502C10.0983 76.502 10.3457 76.4238 10.5605 76.2676C10.7819 76.1113 10.9935 75.8802 11.1953 75.5742C11.3971 75.2747 11.7194 74.6595 12.1621 73.7285C12.5723 72.8561 12.9661 72.2018 13.3438 71.7656C13.7214 71.3294 14.1608 70.9811 14.6621 70.7207C15.1634 70.4603 15.7493 70.3301 16.4199 70.3301C17.6829 70.3301 18.6758 70.7565 19.3984 71.6094C20.1211 72.4688 20.4824 73.6536 20.4824 75.1641C20.4824 75.9062 20.3945 76.6126 20.2188 77.2832C20.043 77.9603 19.7956 78.6667 19.4766 79.4023L17.123 78.4258C17.4355 77.6641 17.6536 77.0326 17.7773 76.5312C17.901 76.0365 17.9629 75.5482 17.9629 75.0664C17.9629 74.4935 17.8294 74.054 17.5625 73.748C17.2956 73.4421 16.9473 73.2891 16.5176 73.2891C16.2507 73.2891 16.0163 73.3509 15.8145 73.4746C15.6191 73.5983 15.4271 73.7936 15.2383 74.0605C15.056 74.334 14.724 74.9753 14.2422 75.9844C13.6042 77.319 12.9629 78.2337 12.3184 78.7285C11.6803 79.2233 10.8958 79.4707 9.96484 79.4707ZM17.9629 88.123C17.9629 86.9837 17.5332 86.1016 16.6738 85.4766C15.821 84.8516 14.6296 84.5391 13.0996 84.5391C9.91602 84.5391 8.32422 85.7337 8.32422 88.123C8.32422 89.1257 8.57487 90.3398 9.07617 91.7656H6.53711C6.04883 90.5938 5.80469 89.2852 5.80469 87.8398C5.80469 85.763 6.43294 84.1745 7.68945 83.0742C8.95247 81.974 10.7624 81.4238 13.1191 81.4238C14.6035 81.4238 15.9023 81.694 17.0156 82.2344C18.1354 82.7747 18.9915 83.5495 19.584 84.5586C20.1829 85.5742 20.4824 86.7624 20.4824 88.123C20.4824 89.5098 20.1471 90.903 19.4766 92.3027L17.0156 91.3262C17.2695 90.7923 17.4909 90.2552 17.6797 89.7148C17.8685 89.1745 17.9629 88.6439 17.9629 88.123ZM13.9395 97.8398V98.8164C13.9395 99.7734 14.099 100.48 14.418 100.936C14.737 101.391 15.2383 101.619 15.9219 101.619C16.599 101.619 17.0807 101.385 17.3672 100.916C17.6536 100.454 17.7969 99.7344 17.7969 98.7578V97.8398H13.9395ZM11.4785 97.8398H6V94.8125H20.2773V98.9727C20.2773 100.913 19.9225 102.348 19.2129 103.279C18.5098 104.21 17.4388 104.676 16 104.676C15.1602 104.676 14.4115 104.445 13.7539 103.982C13.1029 103.52 12.5918 102.866 12.2207 102.02C9.01107 104.168 6.9375 105.568 6 106.219V102.859L11.4785 99.4512V97.8398ZM13.1582 120.975C10.7949 120.975 8.97852 120.389 7.70898 119.217C6.43945 118.045 5.80469 116.365 5.80469 114.178C5.80469 111.99 6.43945 110.311 7.70898 109.139C8.97852 107.967 10.8014 107.381 13.1777 107.381C15.554 107.381 17.3672 107.967 18.6172 109.139C19.8737 110.317 20.502 112.003 20.502 114.197C20.502 116.391 19.8704 118.068 18.6074 119.227C17.3444 120.392 15.528 120.975 13.1582 120.975ZM13.1582 110.555C11.5632 110.555 10.362 110.857 9.55469 111.463C8.7474 112.068 8.34375 112.973 8.34375 114.178C8.34375 116.593 9.94857 117.801 13.1582 117.801C16.3743 117.801 17.9824 116.6 17.9824 114.197C17.9824 112.993 17.5755 112.085 16.7617 111.473C15.9544 110.861 14.7533 110.555 13.1582 110.555ZM6 123.934H20.2773V126.961H8.5V132.752H6V123.934ZM6 135.242H20.2773V138.27H8.5V144.061H6V135.242Z" fill="#DEDEDD"/>
<line x1="14.5" y1="-1.30179e-09" x2="14.5" y2="50" stroke="#DEDEDD" stroke-width="3"/>
</svg>
