<svg width="27" height="146" viewBox="0 0 27 146" fill="none" xmlns="http://www.w3.org/2000/svg">
<path d="M9.96484 10.4707C8.67578 10.4707 7.66016 10.0052 6.91797 9.07422C6.17578 8.14974 5.80469 6.86068 5.80469 5.20703C5.80469 3.68359 6.09115 2.33594 6.66406 1.16406L9.47656 1.16406C9.04688 2.1276 8.74414 2.94141 8.56836 3.60547C8.39258 4.27604 8.30469 4.88802 8.30469 5.44141C8.30469 6.10547 8.43164 6.61328 8.68555 6.96484C8.93945 7.32292 9.31706 7.50195 9.81836 7.50195C10.0983 7.50195 10.3457 7.42383 10.5605 7.26758C10.7819 7.11133 10.9935 6.88021 11.1953 6.57422C11.3971 6.27474 11.7194 5.65951 12.1621 4.72852C12.5723 3.85612 12.9661 3.20182 13.3438 2.76562C13.7214 2.32943 14.1608 1.98112 14.6621 1.7207C15.1634 1.46029 15.7493 1.33008 16.4199 1.33008C17.6829 1.33008 18.6758 1.75651 19.3984 2.60938C20.1211 3.46875 20.4824 4.65365 20.4824 6.16406C20.4824 6.90625 20.3945 7.61263 20.2188 8.2832C20.043 8.96029 19.7956 9.66667 19.4766 10.4023L17.123 9.42578C17.4355 8.66406 17.6536 8.03255 17.7773 7.53125C17.901 7.03646 17.9629 6.54818 17.9629 6.06641C17.9629 5.49349 17.8294 5.05404 17.5625 4.74805C17.2956 4.44206 16.9473 4.28906 16.5176 4.28906C16.2507 4.28906 16.0163 4.35091 15.8145 4.47461C15.6191 4.59831 15.4271 4.79362 15.2383 5.06055C15.056 5.33398 14.724 5.97526 14.2422 6.98438C13.6042 8.31901 12.9629 9.23372 12.3184 9.72852C11.6803 10.2233 10.8958 10.4707 9.96484 10.4707ZM17.9629 19.123C17.9629 17.9837 17.5332 17.1016 16.6738 16.4766C15.821 15.8516 14.6296 15.5391 13.0996 15.5391C9.91602 15.5391 8.32422 16.7337 8.32422 19.123C8.32422 20.1257 8.57487 21.3398 9.07617 22.7656H6.53711C6.04883 21.5938 5.80469 20.2852 5.80469 18.8398C5.80469 16.763 6.43294 15.1745 7.68945 14.0742C8.95247 12.974 10.7624 12.4238 13.1191 12.4238C14.6035 12.4238 15.9023 12.694 17.0156 13.2344C18.1354 13.7747 18.9915 14.5495 19.584 15.5586C20.1829 16.5742 20.4824 17.7624 20.4824 19.123C20.4824 20.5098 20.1471 21.903 19.4766 23.3027L17.0156 22.3262C17.2695 21.7923 17.4909 21.2552 17.6797 20.7148C17.8685 20.1745 17.9629 19.6439 17.9629 19.123ZM13.9395 28.8398V29.8164C13.9395 30.7734 14.099 31.4798 14.418 31.9355C14.737 32.3913 15.2383 32.6191 15.9219 32.6191C16.599 32.6191 17.0807 32.3848 17.3672 31.916C17.6536 31.4538 17.7969 30.7344 17.7969 29.7578V28.8398H13.9395ZM11.4785 28.8398H6V25.8125H20.2773V29.9727C20.2773 31.9128 19.9225 33.3483 19.2129 34.2793C18.5098 35.2103 17.4388 35.6758 16 35.6758C15.1602 35.6758 14.4115 35.4447 13.7539 34.9824C13.1029 34.5202 12.5918 33.8659 12.2207 33.0195C9.01107 35.168 6.9375 36.5677 6 37.2188V33.8594L11.4785 30.4512V28.8398ZM13.1582 51.9746C10.7949 51.9746 8.97852 51.3887 7.70898 50.2168C6.43945 49.0449 5.80469 47.3652 5.80469 45.1777C5.80469 42.9902 6.43945 41.3105 7.70898 40.1387C8.97852 38.9668 10.8014 38.3809 13.1777 38.3809C15.554 38.3809 17.3672 38.9668 18.6172 40.1387C19.8737 41.3171 20.502 43.0033 20.502 45.1973C20.502 47.3913 19.8704 49.0677 18.6074 50.2266C17.3444 51.3919 15.528 51.9746 13.1582 51.9746ZM13.1582 41.5547C11.5632 41.5547 10.362 41.8574 9.55469 42.4629C8.7474 43.0684 8.34375 43.9733 8.34375 45.1777C8.34375 47.5931 9.94857 48.8008 13.1582 48.8008C16.3743 48.8008 17.9824 47.5996 17.9824 45.1973C17.9824 43.9928 17.5755 43.0846 16.7617 42.4727C15.9544 41.8607 14.7533 41.5547 13.1582 41.5547ZM6 54.9336H20.2773V57.9609H8.5V63.752H6V54.9336ZM6 66.2422H20.2773V69.2695H8.5V75.0605H6V66.2422Z" fill="#DEDEDD"/>
<line x1="13.5" y1="96" x2="13.5" y2="146" stroke="#DEDEDD" stroke-width="3"/>
</svg>
